<?xml version="1.0" standalone="no"?>
<!DOCTYPE svg PUBLIC "-//W3C//DTD SVG 20010904//EN"
 "http://www.w3.org/TR/2001/REC-SVG-20010904/DTD/svg10.dtd">
<svg version="1.0" xmlns="http://www.w3.org/2000/svg"
 width="265.000000pt" height="259.000000pt" viewBox="0 0 265.000000 259.000000"
 preserveAspectRatio="xMidYMid meet">

<g transform="translate(0.000000,259.000000) scale(0.100000,-0.100000)"
fill="#000000" stroke="none">
<path d="M0 1295 l0 -1295 1325 0 1325 0 0 1295 0 1295 -1325 0 -1325 0 0
-1295z m1780 438 c129 -162 148 -189 136 -203 -7 -8 -78 -96 -156 -195 -79
-99 -149 -187 -157 -196 -12 -14 8 -42 162 -233 96 -120 175 -220 175 -222 0
-2 -51 -4 -112 -3 l-113 0 -141 178 -142 178 -55 -2 c-31 -1 -60 1 -66 4 -6 4
67 103 166 226 96 121 186 234 200 252 l25 32 -78 95 -78 96 -253 0 -253 0 0
-87 0 -88 -81 -100 c-44 -55 -85 -104 -90 -109 -5 -6 -9 101 -9 277 l0 287
385 0 385 0 150 -187z m-311 -177 c6 -4 -106 -152 -265 -349 l-274 -342 209
-3 210 -2 70 -88 70 -87 -229 -3 c-126 -1 -335 -1 -465 0 l-237 3 336 420
c186 231 349 430 363 443 23 21 32 23 113 19 49 -3 93 -8 99 -11z"/>
</g>
</svg>
