<?xml version="1.0" standalone="no"?>
<!DOCTYPE svg PUBLIC "-//W3C//DTD SVG 20010904//EN"
 "http://www.w3.org/TR/2001/REC-SVG-20010904/DTD/svg10.dtd">
<svg version="1.0" xmlns="http://www.w3.org/2000/svg"
 width="265.000000pt" height="143.000000pt" viewBox="0 0 265.000000 143.000000"
 preserveAspectRatio="xMidYMid meet">

<g transform="translate(0.000000,143.000000) scale(0.100000,-0.100000)"
fill="#000000" stroke="none">
<path d="M0 715 l0 -715 1325 0 1325 0 0 715 0 715 -1325 0 -1325 0 0 -715z
m1780 438 c129 -162 148 -189 136 -203 -18 -20 -298 -370 -313 -391 -11 -15
11 -47 162 -234 96 -119 175 -219 175 -221 0 -2 -51 -4 -112 -3 l-113 0 -142
179 -142 178 -54 -3 c-29 -2 -59 0 -65 4 -7 4 54 89 165 226 96 121 186 234
200 252 l25 32 -78 95 -78 96 -253 0 -253 0 0 -87 0 -88 -81 -100 c-44 -55
-85 -104 -90 -109 -5 -6 -9 101 -9 277 l0 287 385 0 385 0 150 -187z m-313
-176 c8 -5 -77 -119 -263 -350 l-274 -342 210 -3 210 -2 70 -88 70 -87 -229
-3 c-126 -1 -336 -1 -466 0 l-237 3 351 437 351 437 63 3 c92 4 131 3 144 -5z"/>
</g>
</svg>
